<svg width="24" height="24" viewBox="0 0 24 24" fill="none" xmlns="http://www.w3.org/2000/svg">
<g id="cleaning-brush">
<g id="Group">
<path id="Vector" d="M23.0708 22.1459L21.81 15.4236L12.0001 13.0603L2.19024 15.4236L0.930724 22.146C0.88504 22.3899 1.07215 22.6153 1.32026 22.6153H22.6812C22.9294 22.6153 23.1165 22.3898 23.0708 22.1459Z" fill="url(#paint0_linear_1299_4255)"/>
<path id="Vector_2" d="M11.6133 13.1538L12.0014 13.0602L12.3901 13.1538H11.6133Z" fill="url(#paint1_linear_1299_4255)"/>
<path id="Vector_3" d="M0.986327 21.8495H23.0152L23.0708 22.146C23.1165 22.3899 22.9294 22.6153 22.6812 22.6153H1.32026C1.07212 22.6153 0.884992 22.3898 0.930741 22.1459L0.986327 21.8495Z" fill="url(#paint2_linear_1299_4255)"/>
<path id="Vector_4" d="M21.81 15.4236L12.0001 13.0603L2.19024 15.4236L0.986328 21.8495C14.7105 21.3425 20.8411 16.4711 21.8345 15.5543L21.81 15.4236Z" fill="url(#paint3_linear_1299_4255)"/>
<g id="Group_2">
<path id="Vector_5" d="M4.17276 8.90224H19.8295C21.1427 8.90224 22.2073 9.96683 22.2073 11.2801V13.8123C22.2073 14.0312 22.0298 14.2086 21.811 14.2086H2.19123C1.97237 14.2086 1.79492 14.0312 1.79492 13.8123V11.2801C1.79492 9.96683 2.85953 8.90224 4.17276 8.90224Z" fill="url(#paint4_linear_1299_4255)"/>
<path id="Vector_6" d="M19.8295 10.8373H4.17276C2.85951 10.8373 1.79492 11.9019 1.79492 13.2151V15.7473C1.79492 15.9662 1.97237 16.1436 2.19123 16.1436H21.811C22.0299 16.1436 22.2073 15.9662 22.2073 15.7473V13.2151C22.2073 11.9019 21.1427 10.8373 19.8295 10.8373Z" fill="url(#paint5_linear_1299_4255)"/>
<path id="Vector_7" d="M12.0015 1.3847C10.3299 1.3847 9.07464 2.91225 9.39892 4.55317L10.4089 9.65985C10.4154 9.69144 10.4238 9.72303 10.4368 9.75184C10.8837 10.7525 13.1862 10.7646 13.5727 9.74346C13.582 9.71931 13.5876 9.69515 13.5932 9.67006L14.605 4.55317C14.9293 2.91225 13.674 1.3847 12.0015 1.3847Z" fill="url(#paint6_linear_1299_4255)"/>
<g id="Group_3">
<path id="Vector_8" d="M12.0017 6.17963C12.7903 6.17963 13.4311 5.42338 13.4311 4.48912C13.4311 3.55486 12.7903 2.79753 12.0017 2.79753C11.212 2.79753 10.5723 3.55486 10.5723 4.48912C10.5723 5.42338 11.212 6.17963 12.0017 6.17963Z" fill="url(#paint7_linear_1299_4255)"/>
</g>
</g>
<g id="Group_4">
<path id="Vector_9" d="M15.5643 14.2846C16.2406 14.2846 16.7888 13.7364 16.7888 13.0601C16.7888 12.3839 16.2406 11.8357 15.5643 11.8357C14.8881 11.8357 14.3398 12.3839 14.3398 13.0601C14.3398 13.7364 14.8881 14.2846 15.5643 14.2846Z" fill="url(#paint8_radial_1299_4255)"/>
<path id="Vector_10" d="M15.7234 13.1432L16.0253 13.5208L15.6477 13.2185L15.5647 13.9671L15.4821 13.2185L15.1045 13.5208L15.4064 13.1432L14.6582 13.0601L15.4064 12.9771L15.1045 12.6L15.4821 12.9018L15.5647 12.1537L15.6477 12.9018L16.0253 12.6L15.7234 12.9771L16.4716 13.0601L15.7234 13.1432Z" fill="url(#paint9_radial_1299_4255)"/>
</g>
<path id="Vector_11" d="M1.79492 15.7473V13.2151C1.79492 11.9019 2.85953 10.8373 4.17276 10.8373H19.8295C21.1427 10.8373 22.2073 11.9019 22.2073 13.2151V15.7473C22.2073 15.9451 22.062 16.1076 21.8726 16.1374C22.0027 16.1138 22.1174 16.0223 22.1653 15.9013C22.1952 15.8312 22.1962 15.7572 22.1924 15.6798L22.1875 15.4499L22.1725 14.53C22.1624 13.3395 22.1575 12.9902 22.0856 12.7088C21.8626 11.7439 21.026 11.021 20.0406 10.9424L19.8195 10.9339C9.84589 10.979 13.9095 10.9788 4.18269 10.9344L3.96169 10.9428C2.97514 11.0213 2.13917 11.7457 1.91701 12.7089C1.85362 12.9568 1.84171 13.1539 1.82995 14.53L1.81489 15.4499L1.8099 15.6798C1.80611 15.7572 1.80711 15.8312 1.83699 15.9013C1.88481 16.0223 1.99956 16.1138 2.12972 16.1374C1.94026 16.1077 1.79492 15.9451 1.79492 15.7473Z" fill="#DF9CEF"/>
</g>
</g>
<defs>
<linearGradient id="paint0_linear_1299_4255" x1="18.2888" y1="17.838" x2="4.19198" y2="17.838" gradientUnits="userSpaceOnUse">
<stop stop-color="#DAE7ED"/>
<stop offset="0.713" stop-color="#A2B9BD"/>
<stop offset="1" stop-color="#8CA6AA"/>
</linearGradient>
<linearGradient id="paint1_linear_1299_4255" x1="23.0779" y1="13.1072" x2="0.924046" y2="13.1072" gradientUnits="userSpaceOnUse">
<stop stop-color="#DAE7ED"/>
<stop offset="0.713" stop-color="#A2B9BD"/>
<stop offset="1" stop-color="#8CA6AA"/>
</linearGradient>
<linearGradient id="paint2_linear_1299_4255" x1="4.04014" y1="22.2323" x2="16.1366" y2="22.2323" gradientUnits="userSpaceOnUse">
<stop stop-color="#DAE7ED"/>
<stop offset="0.713" stop-color="#A2B9BD"/>
<stop offset="1" stop-color="#8CA6AA"/>
</linearGradient>
<linearGradient id="paint3_linear_1299_4255" x1="11.7977" y1="25.5235" x2="11.0892" y2="13.044" gradientUnits="userSpaceOnUse">
<stop stop-color="#DAE7ED"/>
<stop offset="0.713" stop-color="#A2B9BD"/>
<stop offset="1" stop-color="#8CA6AA"/>
</linearGradient>
<linearGradient id="paint4_linear_1299_4255" x1="22.2075" y1="11.5555" x2="1.79506" y2="11.5555" gradientUnits="userSpaceOnUse">
<stop offset="0.489" stop-color="#BD5DD8"/>
<stop offset="0.864" stop-color="#9A43BF"/>
</linearGradient>
<linearGradient id="paint5_linear_1299_4255" x1="1.79506" y1="13.4903" x2="22.2075" y2="13.4903" gradientUnits="userSpaceOnUse">
<stop offset="0.489" stop-color="#BD5DD8"/>
<stop offset="0.864" stop-color="#9A43BF"/>
</linearGradient>
<linearGradient id="paint6_linear_1299_4255" x1="8.53656" y1="5.94507" x2="14.0146" y2="5.94507" gradientUnits="userSpaceOnUse">
<stop offset="0.489" stop-color="#BD5DD8"/>
<stop offset="0.864" stop-color="#9A43BF"/>
</linearGradient>
<linearGradient id="paint7_linear_1299_4255" x1="14.3507" y1="4.48846" x2="10.7849" y2="4.48846" gradientUnits="userSpaceOnUse">
<stop offset="0.489" stop-color="#BD5DD8"/>
<stop offset="0.864" stop-color="#9A43BF"/>
</linearGradient>
<radialGradient id="paint8_radial_1299_4255" cx="0" cy="0" r="1" gradientUnits="userSpaceOnUse" gradientTransform="translate(15.5643 13.0601) scale(1.22446)">
<stop offset="0.306" stop-color="white" stop-opacity="0.5"/>
<stop offset="1" stop-color="white" stop-opacity="0"/>
</radialGradient>
<radialGradient id="paint9_radial_1299_4255" cx="0" cy="0" r="1" gradientUnits="userSpaceOnUse" gradientTransform="translate(15.5647 13.0601) scale(0.906923)">
<stop offset="0.306" stop-color="white"/>
<stop offset="1" stop-color="white" stop-opacity="0"/>
</radialGradient>
</defs>
</svg>
