<svg width="24" height="24" viewBox="0 0 24 24" fill="none" xmlns="http://www.w3.org/2000/svg">
<g id="computer-settings">
<path id="Vector" fill-rule="evenodd" clip-rule="evenodd" d="M12.9441 7.32552L12.6043 7.74152L12.5992 7.74016L12.5948 7.73896L12.511 7.22368C12.5014 7.11464 12.4099 7.02912 12.2985 7.02912H11.7014H11.6996C11.5967 7.02896 11.5061 7.10344 11.489 7.20824L11.4896 7.20832L11.4033 7.73896L11.3987 7.74016L11.3938 7.74152L11.0642 7.338C11.0016 7.24776 10.8791 7.21912 10.7824 7.27496L10.7829 7.27576L10.2815 7.5652C10.1802 7.61144 10.1308 7.72912 10.1709 7.8348L10.1714 7.83464L10.3621 8.33776L10.3586 8.34112L10.3554 8.3444L9.86608 8.15888C9.76712 8.1132 9.64776 8.14976 9.59216 8.246L9.59272 8.24688L9.30344 8.748C9.23896 8.83872 9.25496 8.9652 9.34248 9.03664L9.34328 9.0364L9.7592 9.37608L9.75784 9.38112L9.75664 9.3856L9.24144 9.46944C9.1324 9.47896 9.04688 9.57048 9.04688 9.68192V10.279V10.2808C9.04672 10.3837 9.1212 10.4743 9.226 10.4914L9.22608 10.4908L9.75655 10.5771L9.75784 10.5818L9.7592 10.5867L9.35576 10.9162C9.26552 10.9788 9.23688 11.1013 9.2928 11.198L9.2936 11.1975L9.58304 11.6989C9.62928 11.8002 9.74696 11.8496 9.85264 11.8095L9.85248 11.809L10.3556 11.6183L10.359 11.6218L10.3622 11.625L10.1767 12.1143C10.131 12.2133 10.1676 12.3326 10.2638 12.3882L10.2647 12.3877L10.7658 12.677C10.8566 12.7414 10.983 12.7254 11.0545 12.6379L11.0542 12.6371L11.394 12.2211L11.399 12.2225L11.4035 12.2237L11.4874 12.739C11.4969 12.848 11.5884 12.9334 11.6998 12.9334H12.297H12.2987C12.4016 12.9336 12.4922 12.8591 12.5093 12.7543L12.5087 12.7542L12.595 12.2238L12.5997 12.2225L12.6046 12.2211L12.9342 12.6246C12.9967 12.7148 13.1192 12.7434 13.2159 12.6875L13.2154 12.6867L13.7168 12.3973C13.8181 12.351 13.8675 12.2334 13.8274 12.1277L13.827 12.1278L13.6362 11.6247L13.6397 11.6214L13.6429 11.6182L14.1322 11.8036C14.2312 11.8493 14.3506 11.8127 14.4062 11.7165L14.4056 11.7156L14.6949 11.2145C14.7594 11.1238 14.7434 10.9973 14.6558 10.9258L14.655 10.9261L14.239 10.5863L14.2404 10.5813L14.2416 10.5768L14.7569 10.493C14.8659 10.4834 14.9514 10.3919 14.9514 10.2805V9.68336V9.6816C14.9515 9.57872 14.877 9.48808 14.7722 9.47104L14.7722 9.4716L14.2417 9.38528L14.2404 9.38064L14.239 9.37568L14.6425 9.04616C14.7327 8.9836 14.7614 8.86112 14.7054 8.7644L14.7046 8.76488L14.4152 8.26352C14.369 8.16224 14.2513 8.1128 14.1456 8.15288L14.1458 8.15336L13.6426 8.34408L13.6393 8.34064L13.636 8.33744L13.8215 7.84808C13.8672 7.74912 13.8306 7.62976 13.7344 7.57416L13.7335 7.57472L13.2324 7.28544C13.1417 7.22096 13.0152 7.23696 12.9438 7.32448L12.944 7.32528L12.9441 7.32552ZM11.999 8.47384C12.4153 8.47384 12.7922 8.64256 13.065 8.91544C13.3378 9.18824 13.5066 9.5652 13.5066 9.98144C13.5066 10.3977 13.3379 10.7746 13.065 11.0474C12.7922 11.3202 12.4153 11.489 11.999 11.489C11.5828 11.489 11.2058 11.3203 10.933 11.0474C10.6602 10.7746 10.4914 10.3977 10.4914 9.98144C10.4914 9.5652 10.6602 9.18824 10.933 8.91544C11.2058 8.64264 11.5828 8.47384 11.999 8.47384Z" fill="#F7E4E4"/>
<path id="Vector_2" fill-rule="evenodd" clip-rule="evenodd" d="M21.7896 14.8213H2.63833V4.6473C2.63833 4.36709 2.86695 4.13859 3.14704 4.13859H21.2807C21.5609 4.13859 21.7894 4.36721 21.7894 4.6473V14.8213H21.7896ZM3.14716 17.7594H9.65918V19.3566H8.43469C7.84508 19.3566 7.36294 19.8389 7.36294 20.4284C7.36294 21.0185 7.8446 21.5001 8.43469 21.5001H15.8691C16.4581 21.5001 16.9408 21.0176 16.9408 20.4284C16.9408 19.8394 16.4583 19.3566 15.8691 19.3566H14.6447V17.7594H21.2809C21.9109 17.7594 22.428 17.2428 22.428 16.6123V16.1571V4.6473C22.428 4.01722 21.9114 3.50014 21.2809 3.50014H3.14716C2.51708 3.50014 2 4.01674 2 4.6473V16.1571V16.6123C2 17.2423 2.5166 17.7594 3.14716 17.7594Z" fill="#F7E4E4"/>
</g>
</svg>
