<svg width="17" height="17" viewBox="0 0 17 17" fill="none" xmlns="http://www.w3.org/2000/svg">
<g id="camera" clip-path="url(#clip0_1_6297)">
<path id="Vector" d="M16.3242 12.4C16.3242 14.55 14.5742 16.3 12.4242 16.3H4.59922C2.44922 16.3 0.699219 14.55 0.699219 12.4V4.59995C0.699219 2.44995 2.44922 0.699951 4.59922 0.699951H12.4242C14.5742 0.699951 16.3242 2.44995 16.3242 4.59995V12.4Z" fill="url(#paint0_linear_1_6297)"/>
<g id="Group">
<g id="Group_2">
<g id="Group_3">
<path id="Vector_2" d="M13 7.16943V10.7694C13 11.5982 12.3287 12.2694 11.5 12.2694H5.5C4.675 12.2694 4 11.5982 4 10.7694V7.16943L7.58125 9.56943C8.12087 9.98943 8.87875 9.98943 9.41838 9.56943L13 7.16943Z" fill="white"/>
</g>
<g id="Group_4">
<path id="Vector_3" d="M13 7.16943L9.41875 9.94481C8.878 10.3641 8.12162 10.3641 7.58087 9.94481L4 7.16943C4 6.34068 4.675 5.66943 5.5 5.66943H11.5C12.3287 5.66943 13 6.34068 13 7.16943Z" fill="#B5D1FF"/>
</g>
<g id="Group_5">
<path id="Vector_4" d="M12.0046 5.66892C12.0046 6.14855 11.6157 6.53705 11.1365 6.53705C10.6565 6.53705 10.2676 6.14855 10.2676 5.66892C10.2676 5.1893 10.6565 4.80005 11.1365 4.80005C11.6157 4.80005 12.0046 5.1893 12.0046 5.66892Z" fill="#2979FF"/>
</g>
</g>
</g>
</g>
<defs>
<linearGradient id="paint0_linear_1_6297" x1="8.65397" y1="-5.23455" x2="8.41797" y2="15.7182" gradientUnits="userSpaceOnUse">
<stop stop-color="white"/>
<stop offset="1" stop-color="#5301FE"/>
</linearGradient>
<clipPath id="clip0_1_6297">
<rect width="16" height="16" fill="white" transform="translate(0.5 0.5)"/>
</clipPath>
</defs>
</svg>
