<svg width="16" height="17" viewBox="0 0 16 17" fill="none" xmlns="http://www.w3.org/2000/svg">
<g id="home">
<path id="Vector" d="M6.2793 11.4932H9.71018" stroke="white" stroke-linecap="round" stroke-linejoin="round"/>
<path id="Vector_2" d="M7.98975 3.88316C8.17018 3.88361 8.34641 3.93765 8.49608 4.03843L12.1647 6.48564C12.3067 6.58283 12.4224 6.71366 12.5015 6.86645C12.5807 7.01923 12.6208 7.18923 12.6182 7.36128L12.6134 12.0881C12.6129 12.6553 12.1822 13.1168 11.6534 13.1168H4.33984C4.21785 13.1162 4.09717 13.0914 3.98481 13.0439C3.87246 12.9964 3.77065 12.927 3.68528 12.8398C3.58703 12.7406 3.50944 12.6229 3.45701 12.4935C3.40458 12.364 3.37835 12.2255 3.37984 12.0859L3.38464 7.35708C3.38255 7.18584 3.42265 7.01672 3.50139 6.86464C3.58013 6.71257 3.69509 6.58221 3.83614 6.48508L7.48114 4.03979C7.63129 3.93811 7.80841 3.88359 7.98975 3.88316ZM7.98975 2.84316C7.60208 2.84355 7.22321 2.95946 6.90174 3.17613L3.25672 5.62144C2.9744 5.81391 2.74362 6.07271 2.58461 6.37514C2.42559 6.67757 2.3432 7.01439 2.34464 7.35607L2.33984 12.0849C2.33869 13.2288 3.23447 14.1568 4.33984 14.1568H11.6534C12.7572 14.1568 13.6523 13.2315 13.6534 12.0892L13.6582 7.36237C13.6604 7.01908 13.5779 6.68054 13.4181 6.37673C13.2582 6.07291 13.026 5.81318 12.7418 5.62052L9.0732 3.17332C8.75266 2.95843 8.37565 2.84353 7.98975 2.84316Z" fill="white"/>
</g>
</svg>
