<svg width="24" height="24" viewBox="0 0 24 24" fill="none" xmlns="http://www.w3.org/2000/svg">
<g id="laptop">
<path id="Vector" d="M19.9572 4.26752H4.04219C3.74708 4.27244 3.46573 4.39313 3.25879 4.60358C3.05185 4.81403 2.9359 5.09737 2.93594 5.39252V15.8063C2.93543 15.9129 2.95618 16.0186 2.99699 16.1171C3.0378 16.2157 3.09784 16.3051 3.17361 16.3802C3.24937 16.4552 3.33934 16.5144 3.43826 16.5543C3.53717 16.5942 3.64304 16.614 3.74969 16.6125H20.2497C20.3554 16.6125 20.46 16.5916 20.5577 16.5511C20.6553 16.5105 20.7439 16.4511 20.8185 16.3761C20.893 16.3012 20.9521 16.2123 20.9922 16.1145C21.0323 16.0167 21.0527 15.912 21.0522 15.8063V5.37752C21.0484 5.08688 20.9323 4.80898 20.7282 4.60205C20.524 4.39513 20.2477 4.27524 19.9572 4.26752ZM11.9997 4.53377C12.0933 4.53302 12.185 4.5601 12.2632 4.61157C12.3414 4.66303 12.4025 4.73657 12.4389 4.82284C12.4752 4.90911 12.4851 5.00423 12.4673 5.09613C12.4495 5.18803 12.4048 5.27257 12.3389 5.33903C12.2729 5.40548 12.1888 5.45086 12.097 5.46939C12.0052 5.48793 11.9101 5.4788 11.8235 5.44315C11.7369 5.4075 11.6629 5.34694 11.6108 5.26916C11.5587 5.19138 11.5309 5.09988 11.5309 5.00627C11.5309 4.8816 11.5802 4.76198 11.668 4.67348C11.7558 4.58497 11.875 4.53476 11.9997 4.53377ZM20.3172 15.1763H3.68219V5.70377H20.3172V15.1763ZM14.5797 17.0438C14.5188 17.3033 14.3718 17.5345 14.1628 17.7C13.9538 17.8654 13.695 17.9553 13.4284 17.955H10.5709C10.3044 17.9553 10.0456 17.8654 9.83654 17.7C9.62753 17.5345 9.48062 17.3033 9.41969 17.0438H0.460938C0.460937 17.7562 0.7437 18.4395 1.24713 18.9437C1.75056 19.4478 2.43349 19.7315 3.14594 19.7325H20.8534C21.5659 19.7315 22.2488 19.4478 22.7522 18.9437C23.2557 18.4395 23.5384 17.7562 23.5384 17.0438H14.5797Z" fill="#92BDFF"/>
</g>
</svg>
