<svg width="16" height="17" viewBox="0 0 16 17" fill="none" xmlns="http://www.w3.org/2000/svg">
<g id="Lightning" clip-path="url(#clip0_1_359)">
<path id="Vector" d="M13.3661 8.3413L6.36608 15.8413C6.29189 15.9205 6.19398 15.9734 6.0871 15.992C5.98022 16.0106 5.87019 15.994 5.77359 15.9446C5.677 15.8952 5.59909 15.8157 5.55162 15.7182C5.50415 15.6206 5.4897 15.5103 5.51045 15.4038L6.4267 10.8207L2.82483 9.46818C2.74747 9.43924 2.67849 9.3916 2.62404 9.3295C2.56959 9.2674 2.53138 9.19277 2.5128 9.1123C2.49423 9.03183 2.49589 8.948 2.51761 8.86832C2.53934 8.78864 2.58047 8.71559 2.63733 8.65568L9.63733 1.15568C9.71151 1.07651 9.80942 1.02362 9.9163 1.00499C10.0232 0.986356 10.1332 1.00299 10.2298 1.05238C10.3264 1.10177 10.4043 1.18124 10.4518 1.27879C10.4992 1.37635 10.5137 1.48669 10.493 1.59318L9.5742 6.1813L13.1761 7.53193C13.2529 7.56106 13.3213 7.60865 13.3753 7.67051C13.4293 7.73236 13.4673 7.80657 13.4858 7.88658C13.5044 7.96658 13.5029 8.04992 13.4816 8.12923C13.4603 8.20854 13.4197 8.28138 13.3636 8.3413H13.3661Z" fill="#A2A9B2" fill-opacity="0.4"/>
</g>
<defs>
<clipPath id="clip0_1_359">
<rect width="16" height="16" fill="white" transform="translate(0 0.5)"/>
</clipPath>
</defs>
</svg>
