<svg width="20" height="20" viewBox="0 0 20 20" fill="none" xmlns="http://www.w3.org/2000/svg">
<g id="repair-tools" clip-path="url(#clip0_1299_4230)">
<path id="Vector" d="M18.4813 15.3074L13.9842 10.8132C13.9713 10.7994 13.9557 10.7884 13.9383 10.7808C13.921 10.7731 13.9023 10.769 13.8834 10.7688C13.8645 10.7685 13.8457 10.772 13.8281 10.7792C13.8106 10.7863 13.7947 10.7969 13.7813 10.8103L13.6666 10.9191C13.4284 11.1574 13.0431 11.1574 12.8048 10.9191C12.5695 10.6838 12.5695 10.2956 12.8078 10.0574L12.9166 9.9456C12.9425 9.91739 12.9566 9.88035 12.956 9.84208C12.9555 9.8038 12.9403 9.76718 12.9136 9.73972L12.6901 9.51913L9.51659 12.6927L9.74306 12.9162C9.76953 12.9456 9.81659 12.9574 9.846 12.9603C9.88718 12.9603 9.92541 12.9427 9.95188 12.9132L10.0548 12.8044C10.296 12.5721 10.6989 12.5809 10.9225 12.8044C11.1607 13.0427 11.1607 13.4309 10.9225 13.6662L10.8107 13.775C10.7832 13.8026 10.7675 13.8398 10.7669 13.8788C10.7664 13.9178 10.781 13.9555 10.8078 13.9838L15.3048 18.4838C15.5813 18.7574 15.9431 18.8956 16.3078 18.8956C16.6695 18.8956 17.0313 18.7574 17.3048 18.4838L18.4813 17.3074C18.7489 17.0397 18.896 16.6838 18.896 16.3074C18.896 15.9309 18.7489 15.575 18.4813 15.3074ZM5.50777 4.10443C5.47487 4.07041 5.45597 4.02526 5.45482 3.97795C5.45482 3.92795 5.47541 3.88384 5.50777 3.84854C5.60777 3.74854 5.65777 3.61031 5.646 3.46913C5.6313 3.32796 5.55777 3.20148 5.44012 3.12207L2.75482 1.28384C2.56659 1.15443 2.31365 1.17795 2.15188 1.33972L1.34012 2.15148C1.1813 2.31031 1.15777 2.56325 1.28424 2.75148L3.11953 5.44266C3.19894 5.56031 3.32541 5.63384 3.46659 5.64854C3.61071 5.66031 3.746 5.61031 3.85188 5.50737C3.91953 5.43972 4.03718 5.43678 4.10482 5.50737L8.19306 9.59854L9.59894 8.19266L5.50777 4.10443Z" fill="#F4D564"/>
<path id="Vector_2" d="M4.1794 19.2647C4.12352 19.2647 4.06763 19.2635 4.01146 19.2606C3.87445 19.2545 3.74224 19.2083 3.63131 19.1277C3.52039 19.047 3.43564 18.9355 3.38763 18.8071C3.3361 18.6772 3.32387 18.5352 3.35248 18.3985C3.38108 18.2617 3.44926 18.1365 3.54852 18.0382L4.4641 17.1229C4.60177 16.9845 4.70113 16.8128 4.75243 16.6244C4.80373 16.4361 4.80522 16.2376 4.75675 16.0485C4.70657 15.8549 4.60557 15.6782 4.4642 15.5366C4.32283 15.3951 4.14622 15.2939 3.95263 15.2435C3.76307 15.1944 3.56397 15.1955 3.37496 15.2467C3.18594 15.2979 3.01353 15.3975 2.87469 15.5356L1.96234 16.4482C1.86411 16.5477 1.73875 16.6161 1.60192 16.6447C1.46508 16.6734 1.32282 16.6611 1.19293 16.6094C1.06448 16.5613 0.95304 16.4764 0.872497 16.3654C0.791954 16.2543 0.745869 16.122 0.739987 15.985C0.717864 15.5041 0.796257 15.0239 0.970162 14.575C1.14407 14.1261 1.40966 13.7184 1.74999 13.3779C2.75057 12.3773 4.26704 12.0918 5.55528 12.6535L12.6535 5.55382C12.0918 4.26646 12.377 2.7497 13.3773 1.74852C13.7184 1.40758 14.1269 1.14166 14.5767 0.967833C15.0265 0.794004 15.5077 0.716099 15.9894 0.739112C16.2718 0.753229 16.5112 0.926759 16.6135 1.19264C16.7179 1.46323 16.6562 1.75764 16.4523 1.96146L15.537 2.87676C15.3973 3.01654 15.2969 3.19077 15.2461 3.38181C15.1953 3.57285 15.1958 3.77392 15.2477 3.96467C15.2996 4.15542 15.401 4.32908 15.5415 4.46807C15.6821 4.60706 15.8569 4.70645 16.0482 4.75617C16.2378 4.80545 16.437 4.80443 16.6261 4.75321C16.8152 4.70199 16.9876 4.60235 17.1265 4.46411L18.0388 3.55146C18.137 3.452 18.2623 3.38367 18.3991 3.355C18.5359 3.32633 18.6781 3.33861 18.8079 3.39029C18.9364 3.43833 19.0479 3.52318 19.1285 3.63423C19.2091 3.74529 19.2551 3.87762 19.2609 4.0147C19.283 4.49559 19.2046 4.97581 19.0307 5.4247C18.8568 5.87359 18.5912 6.28129 18.2509 6.62176C17.25 7.62294 15.7332 7.90794 14.4459 7.34617L7.34763 14.4459C7.9094 15.7332 7.6241 17.25 6.62381 18.2512C5.97536 18.8992 5.09614 19.2637 4.1794 19.2647Z" fill="#F4D564"/>
</g>
<defs>
<clipPath id="clip0_1299_4230">
<rect width="20" height="20" fill="white"/>
</clipPath>
</defs>
</svg>
