<svg width="32" height="32" viewBox="0 0 32 32" fill="none" xmlns="http://www.w3.org/2000/svg">
<g id="settings">
<path id="Vector" d="M6.96065 8.0689C6.54585 8.4837 6.49175 9.13755 6.8327 9.6149L8.36315 11.7576L7.6 13.6L5.0027 14.0329C4.42409 14.1293 4 14.6299 4 15.2165V16.7834C4 17.37 4.42409 17.8707 5.0027 17.9671L7.6 18.4L8.36325 20.2426L6.8328 22.3853C6.49185 22.8626 6.54595 23.5165 6.96075 23.9313L8.0687 25.0392C8.4835 25.4541 9.13735 25.5082 9.6147 25.1672L11.7573 23.6367L13.6 24.4L14.0329 26.9973C14.1293 27.5759 14.6299 28 15.2165 28H16.7834C17.37 28 17.8707 27.5759 17.9671 26.9973L18.4 24.4L20.2428 23.6367L22.3853 25.1671C22.8627 25.5081 23.5166 25.454 23.9314 25.0392L25.0394 23.9312C25.4542 23.5164 25.5082 22.8626 25.1673 22.3852L23.6369 20.2425L24.4 18.4L26.9973 17.9671C27.5759 17.8707 28 17.37 28 16.7834V15.2165C28 14.6299 27.5759 14.1293 26.9973 14.0329L24.4 13.6L23.6367 11.7573L25.1672 9.6147C25.5082 9.13735 25.4541 8.4835 25.0392 8.0687L23.9313 6.96075C23.5165 6.54595 22.8626 6.49185 22.3853 6.8328L20.2426 8.36325L18.4 7.6L17.9671 5.0027C17.8707 4.42409 17.37 4 16.7834 4H15.2165C14.6299 4 14.1293 4.42409 14.0329 5.0027L13.6 7.6L11.7573 8.36345L9.61465 6.83295C9.1373 6.492 8.4834 6.54615 8.0686 6.96095L6.96065 8.0689Z" fill="url(#paint0_linear_1_5482)"/>
<path id="Vector_2" d="M23 16C23 19.866 19.866 23 16 23C12.134 23 9 19.866 9 16C9 12.134 12.134 9 16 9C19.866 9 23 12.134 23 16Z" fill="url(#paint1_linear_1_5482)"/>
<path id="Vector_3" d="M19 16C19 17.6568 17.6568 19 16 19C14.3432 19 13 17.6568 13 16C13 14.3432 14.3432 13 16 13C17.6568 13 19 14.3432 19 16Z" fill="#080808"/>
</g>
<defs>
<linearGradient id="paint0_linear_1_5482" x1="16" y1="4" x2="16" y2="28" gradientUnits="userSpaceOnUse">
<stop stop-color="#0047FF" stop-opacity="0.5"/>
<stop offset="1" stop-color="#31B5F0"/>
</linearGradient>
<linearGradient id="paint1_linear_1_5482" x1="16" y1="9" x2="16" y2="23" gradientUnits="userSpaceOnUse">
<stop stop-color="#0047FF" stop-opacity="0.5"/>
<stop offset="1" stop-color="#0047FF" stop-opacity="0"/>
</linearGradient>
</defs>
</svg>
