<svg width="12" height="12" viewBox="0 0 12 12" fill="none" xmlns="http://www.w3.org/2000/svg">
<g id="hugeicons:shipment-tracking">
<path id="Vector" d="M3.33954 7.15172H4.21536M8.59448 7.15172V8.46545C8.59448 9.29135 8.59448 9.70386 8.3891 9.96048C8.19335 10.2057 7.88331 10.2167 7.28074 10.2171M8.59798 3.21051H8.5936M4.21536 10.2171H3.33954C2.51364 10.2171 2.10112 10.2171 1.84451 9.96048C1.58789 9.70386 1.58789 9.29135 1.58789 8.46545V7.58963C1.58789 6.76373 1.58789 6.35121 1.84451 6.0946C2.10112 5.83798 2.51364 5.83798 3.33954 5.83798H4.21536C5.04126 5.83798 5.45378 5.83798 5.71039 6.0946C5.96701 6.35121 5.96701 6.76373 5.96701 7.58963V8.46545C5.96701 9.29135 5.96701 9.70386 5.71039 9.96048C5.45378 10.2171 5.04126 10.2171 4.21536 10.2171ZM8.59448 1.45886C7.62669 1.45886 6.84283 2.25104 6.84283 3.22803C6.84283 3.7868 7.06179 4.22121 7.4997 4.6092C7.80843 4.88289 8.1824 5.33745 8.40661 5.70529C8.51434 5.88221 8.66673 5.88221 8.78234 5.70529C9.01794 5.34445 9.38053 4.88289 9.68926 4.60964C10.1272 4.22121 10.3461 3.7868 10.3461 3.22803C10.3461 2.25148 9.56226 1.45886 8.59448 1.45886Z" stroke="white" stroke-width="0.525494" stroke-linecap="round" stroke-linejoin="round"/>
</g>
</svg>
