<svg width="24" height="24" viewBox="0 0 24 24" fill="none" xmlns="http://www.w3.org/2000/svg">
<g id="wifi">
<g id="Group">
<g id="Group_2">
<path id="Vector" d="M12 20C12.5523 20 13 19.5523 13 19C13 18.4477 12.5523 18 12 18C11.4477 18 11 18.4477 11 19C11 19.5523 11.4477 20 12 20Z" fill="#9EF5EC"/>
<path id="Vector_2" d="M12.0005 14C10.7062 14 9.46234 14.5018 8.53046 15.4C8.33951 15.5843 8.2296 15.837 8.22491 16.1023C8.22022 16.3677 8.32114 16.624 8.50546 16.815C8.68979 17.006 8.94242 17.1159 9.20779 17.1206C9.47315 17.1252 9.72951 17.0243 9.92046 16.84C10.4884 16.32 11.2305 16.0316 12.0005 16.0316C12.7705 16.0316 13.5126 16.32 14.0805 16.84C14.2714 17.0243 14.5278 17.1252 14.7931 17.1206C15.0585 17.1159 15.3111 17.006 15.4955 16.815C15.6798 16.624 15.7807 16.3677 15.776 16.1023C15.7713 15.837 15.6614 15.5843 15.4705 15.4C14.5386 14.5018 13.2947 14 12.0005 14ZM12.0005 9C10.7927 9.00079 9.5974 9.24468 8.48585 9.71713C7.37429 10.1896 6.36921 10.8809 5.53046 11.75C5.4392 11.8465 5.36783 11.9601 5.32045 12.0842C5.27306 12.2083 5.25059 12.3405 5.2543 12.4733C5.25802 12.6061 5.28785 12.7368 5.3421 12.8581C5.39634 12.9793 5.47394 13.0887 5.57046 13.18C5.7654 13.3643 6.02557 13.4637 6.29375 13.4562C6.42654 13.4524 6.55729 13.4226 6.67855 13.3684C6.79981 13.3141 6.9092 13.2365 7.00046 13.14C7.65345 12.4625 8.43632 11.9236 9.30228 11.5556C10.1682 11.1875 11.0995 10.9978 12.0405 10.9978C12.9814 10.9978 13.9127 11.1875 14.7786 11.5556C15.6446 11.9236 16.4275 12.4625 17.0805 13.14C17.1731 13.2345 17.2835 13.3097 17.4054 13.3612C17.5273 13.4126 17.6582 13.4394 17.7905 13.44C17.9859 13.4393 18.1768 13.3813 18.3396 13.2732C18.5025 13.1651 18.6301 13.0117 18.7066 12.832C18.7832 12.6522 18.8055 12.4539 18.7706 12.2616C18.7358 12.0693 18.6453 11.8914 18.5105 11.75C17.667 10.8761 16.6555 10.1819 15.5367 9.70929C14.4179 9.23668 13.215 8.9954 12.0005 9Z" fill="#9EF5EC"/>
<path id="Vector_3" d="M21.7199 7.93C19.1103 5.41257 15.6258 4.00579 11.9999 4.00579C8.37397 4.00579 4.88947 5.41257 2.27989 7.93C2.11113 8.11765 2.01957 8.36218 2.02356 8.61453C2.02756 8.86687 2.12683 9.10838 2.30145 9.29059C2.47607 9.4728 2.71313 9.58225 2.96508 9.59698C3.21703 9.61171 3.46523 9.53063 3.65989 9.37C5.89749 7.20712 8.88784 5.99812 11.9999 5.99812C15.1119 5.99812 18.1023 7.20712 20.3399 9.37C20.5253 9.54868 20.7724 9.64897 21.0299 9.65C21.1646 9.64948 21.2978 9.62176 21.4215 9.56849C21.5453 9.51522 21.6569 9.4375 21.7499 9.34C21.9322 9.1487 22.0314 8.89301 22.0258 8.62881C22.0202 8.3646 21.9102 8.11337 21.7199 7.93Z" fill="#9EF5EC"/>
</g>
</g>
</g>
</svg>
